<svg width="27" height="27" viewBox="0 0 27 27" fill="none" xmlns="http://www.w3.org/2000/svg">
<path d="M8.64012 1.62012C4.76966 1.62012 1.62012 4.76966 1.62012 8.64012V18.3601C1.62012 22.2306 4.76966 25.3801 8.64012 25.3801H18.3601C22.2306 25.3801 25.3801 22.2306 25.3801 18.3601V8.64012C25.3801 4.76966 22.2306 1.62012 18.3601 1.62012H8.64012ZM8.64012 2.70012H18.3601C21.6468 2.70012 24.3001 5.35342 24.3001 8.64012V18.3601C24.3001 21.6468 21.6468 24.3001 18.3601 24.3001H8.64012C5.35342 24.3001 2.70012 21.6468 2.70012 18.3601V8.64012C2.70012 5.35342 5.35342 2.70012 8.64012 2.70012ZM19.9801 5.94012C19.6937 5.94012 19.419 6.0539 19.2164 6.25644C19.0139 6.45898 18.9001 6.73368 18.9001 7.02012C18.9001 7.30655 19.0139 7.58125 19.2164 7.78379C19.419 7.98633 19.6937 8.10012 19.9801 8.10012C20.2666 8.10012 20.5413 7.98633 20.7438 7.78379C20.9463 7.58125 21.0601 7.30655 21.0601 7.02012C21.0601 6.73368 20.9463 6.45898 20.7438 6.25644C20.5413 6.0539 20.2666 5.94012 19.9801 5.94012ZM13.5001 7.56012C10.2259 7.56012 7.56012 10.2259 7.56012 13.5001C7.56012 16.7743 10.2259 19.4401 13.5001 19.4401C16.7743 19.4401 19.4401 16.7743 19.4401 13.5001C19.4401 10.2259 16.7743 7.56012 13.5001 7.56012ZM13.5001 8.64012C16.1906 8.64012 18.3601 10.8096 18.3601 13.5001C18.3601 16.1906 16.1906 18.3601 13.5001 18.3601C10.8096 18.3601 8.64012 16.1906 8.64012 13.5001C8.64012 10.8096 10.8096 8.64012 13.5001 8.64012Z" fill="white"/>
</svg>
