<svg width="57" height="21" viewBox="0 0 57 21" fill="none" xmlns="http://www.w3.org/2000/svg">
<path d="M17.946 10.1818C17.946 12.2528 17.5721 14.0426 16.8242 15.5511C16.0764 17.0597 15.0504 18.223 13.7464 19.0412C12.4425 19.8594 10.9531 20.2685 9.27841 20.2685C7.60369 20.2685 6.11435 19.8594 4.81037 19.0412C3.50639 18.223 2.48047 17.0597 1.7326 15.5511C0.98473 14.0426 0.610796 12.2528 0.610796 10.1818C0.610796 8.1108 0.98473 6.32102 1.7326 4.8125C2.48047 3.30398 3.50639 2.14062 4.81037 1.32244C6.11435 0.504261 7.60369 0.0951697 9.27841 0.0951697C10.9531 0.0951697 12.4425 0.504261 13.7464 1.32244C15.0504 2.14062 16.0764 3.30398 16.8242 4.8125C17.5721 6.32102 17.946 8.1108 17.946 10.1818ZM15.6449 10.1818C15.6449 8.48153 15.3604 7.04652 14.7915 5.87678C14.229 4.70703 13.4652 3.82173 12.5 3.22088C11.5412 2.62003 10.4673 2.3196 9.27841 2.3196C8.08949 2.3196 7.01243 2.62003 6.04723 3.22088C5.08842 3.82173 4.32457 4.70703 3.75568 5.87678C3.19318 7.04652 2.91193 8.48153 2.91193 10.1818C2.91193 11.8821 3.19318 13.3171 3.75568 14.4869C4.32457 15.6566 5.08842 16.5419 6.04723 17.1428C7.01243 17.7436 8.08949 18.044 9.27841 18.044C10.4673 18.044 11.5412 17.7436 12.5 17.1428C13.4652 16.5419 14.229 15.6566 14.7915 14.4869C15.3604 13.3171 15.6449 11.8821 15.6449 10.1818ZM21.9442 20V0.363636H28.8093C30.1772 0.363636 31.3054 0.600142 32.1939 1.07315C33.0824 1.53977 33.744 2.16939 34.1786 2.962C34.6133 3.74822 34.8306 4.62074 34.8306 5.57954C34.8306 6.42329 34.6804 7.12003 34.38 7.66974C34.0859 8.21946 33.696 8.65412 33.2102 8.97372C32.7308 9.29332 32.2099 9.52983 31.6474 9.68324V9.875C32.2482 9.91335 32.8523 10.1243 33.4595 10.5078C34.0668 10.8913 34.5749 11.4411 34.984 12.157C35.3931 12.8729 35.5977 13.7486 35.5977 14.7841C35.5977 15.7685 35.3739 16.6538 34.9265 17.44C34.479 18.2262 33.7727 18.8494 32.8075 19.3097C31.8423 19.7699 30.5863 20 29.0394 20H21.9442ZM24.3221 17.8906H29.0394C30.5927 17.8906 31.6953 17.5902 32.3473 16.9893C33.0057 16.3821 33.3349 15.647 33.3349 14.7841C33.3349 14.1193 33.1655 13.5057 32.8267 12.9432C32.4879 12.3743 32.0053 11.9205 31.3789 11.5817C30.7525 11.2365 30.011 11.0639 29.1545 11.0639H24.3221V17.8906ZM24.3221 8.9929H28.7326C29.4485 8.9929 30.0941 8.85227 30.6694 8.57102C31.2511 8.28977 31.7113 7.89347 32.0501 7.3821C32.3952 6.87074 32.5678 6.26989 32.5678 5.57954C32.5678 4.71662 32.2674 3.98473 31.6665 3.38388C31.0657 2.77663 30.1133 2.47301 28.8093 2.47301H24.3221V8.9929ZM46.2548 2.70312H49.3613C50.8187 2.70312 52.1131 3.02912 53.2445 3.68111C54.3759 4.3331 55.2644 5.24077 55.91 6.40412C56.5556 7.56747 56.8784 8.91619 56.8784 10.4503C56.8784 11.9844 56.5556 13.3363 55.91 14.506C55.2644 15.6758 54.3759 16.5898 53.2445 17.2482C52.1131 17.9066 50.8187 18.2358 49.3613 18.2358H46.2548C44.7974 18.2358 43.503 17.9098 42.3716 17.2578C41.2402 16.6058 40.3517 15.6982 39.7061 14.5348C39.0605 13.3714 38.7377 12.0227 38.7377 10.4886C38.7377 8.95455 39.0605 7.60263 39.7061 6.43288C40.3517 5.26314 41.2402 4.34908 42.3716 3.6907C43.503 3.03232 44.7974 2.70312 46.2548 2.70312ZM46.2548 4.8125C45.1426 4.8125 44.2029 5.04581 43.4359 5.51243C42.6752 5.97905 42.0968 6.63743 41.7005 7.48757C41.3105 8.33771 41.1156 9.33807 41.1156 10.4886C41.1156 11.6264 41.3105 12.6172 41.7005 13.4609C42.0968 14.3047 42.6752 14.9599 43.4359 15.4265C44.2029 15.8931 45.1426 16.1264 46.2548 16.1264H49.3613C50.4735 16.1264 51.41 15.8931 52.1706 15.4265C52.9377 14.9599 53.5162 14.3015 53.9061 13.4513C54.3024 12.6012 54.5005 11.6009 54.5005 10.4503C54.5005 9.3125 54.3024 8.32173 53.9061 7.47798C53.5162 6.63423 52.9377 5.97905 52.1706 5.51243C51.41 5.04581 50.4735 4.8125 49.3613 4.8125H46.2548ZM49.0162 0.0184661V20.8054H46.6383V0.0184661H49.0162Z" fill="white"/>
</svg>
